<?xml version="1.0" encoding="utf-8"?>
<!-- Generator: Adobe Illustrator 28.0.0, SVG Export Plug-In . SVG Version: 6.00 Build 0)  -->
<svg version="1.1" id="Layer_1" xmlns="http://www.w3.org/2000/svg" xmlns:xlink="http://www.w3.org/1999/xlink" x="0px" y="0px"
	 viewBox="0 0 558 200" style="enable-background:new 0 0 558 200;" xml:space="preserve">
<style type="text/css">
	.st0{fill:#81C9EB;}
	.st1{fill:#1A58A9;stroke:#0E315D;stroke-width:2;stroke-miterlimit:10;}
	.st2{fill:#C5E3ED;stroke:#0E315D;stroke-width:2;stroke-miterlimit:10;}
	.st3{fill:none;stroke:#29ABE2;stroke-width:4;stroke-linecap:round;stroke-linejoin:round;stroke-miterlimit:10;}
	.st4{fill:#0E315D;}
	.st5{fill:#FFFF00;}
	.st6{fill:#FFFFFF;}
</style>
<g>
	<g>
		<ellipse class="st0" cx="122.53" cy="100" rx="122.53" ry="98.25"/>
		<path class="st1" d="M179.03,156.58c11.96-15.03,19.23-34.85,19.23-56.58c0-46.93-33.91-84.98-75.74-84.98S46.79,53.07,46.79,100
			c0,21.73,7.27,41.55,19.23,56.58H179.03z"/>
		<path class="st2" d="M182.15,124.38c2.47-7.61,3.82-15.82,3.82-24.38c0-39.31-28.4-71.18-63.44-71.18
			c-35.04,0-63.44,31.87-63.44,71.18c0,8.57,1.35,16.78,3.82,24.38H182.15z"/>
		<polygon class="st3" points="137.96,41.61 107.09,41.61 85.26,63.37 85.26,122.53 159.79,122.53 159.79,63.37 		"/>
		<g>
			<g transform="translate(-592 -312)">
				<path class="st4" d="M686.55,475.69l2.32-5.14h51.45l2.32,5.14H686.55z M693.62,460.26h42.06l2.32,5.14h-46.69L693.62,460.26z
					 M691.44,438.39c0-2.19,1.67-3.86,3.86-3.86s3.86,1.67,3.86,3.86s-1.67,3.86-3.86,3.86S691.44,440.58,691.44,438.39z
					 M691.44,385.66c0-2.83,2.32-5.14,5.14-5.14h10.29c0-1.41,1.16-2.57,2.57-2.57h10.29c1.41,0,2.57,1.16,2.57,2.57h10.29
					c2.83,0,5.14,2.32,5.14,5.14v25.72c0,1.41-1.16,2.57-2.57,2.57h-41.16c-1.41,0-2.57-1.16-2.57-2.57V385.66z M733.24,455.11
					h-37.3l2.32-5.14h32.67L733.24,455.11z M733.88,442.25c-2.19,0-3.86-1.67-3.86-3.86s1.67-3.86,3.86-3.86
					c2.19,0,3.86,1.67,3.86,3.86S736.07,442.25,733.88,442.25z M736.58,449.97h1.16c4.24,0,7.72-3.47,7.72-7.72v-59.17
					c0-5.66-4.63-10.29-10.29-10.29h-41.16c-5.66,0-10.29,4.63-10.29,10.29v59.17c0,4.24,3.47,7.72,7.72,7.72h1.16l-16.33,36.01
					h5.66l2.32-5.14h60.58l2.32,5.14h5.66L736.58,449.97z"/>
			</g>
			<circle class="st5" cx="103.3" cy="126.39" r="3.86"/>
			<circle class="st5" cx="141.88" cy="126.39" r="3.86"/>
		</g>
	</g>
	<g>
		<path class="st6" d="M205.55,84.35V52.59c0-0.98,0.47-1.45,1.45-1.45h20.22c2.33,0,2.95,3.93,2.95,8.33
			c0,0.52-0.36,0.93-0.88,0.93c-0.83,0-1.97-0.98-9.83-0.98h-3.31c-0.52,0-0.78,0.26-0.78,0.78v3.62c0,0.52,0.26,0.78,0.78,0.78
			h8.48c0.83,0,1.6,1.24,1.6,4.14c0,2.9-0.78,4.14-1.6,4.14h-8.48c-0.52,0-0.78,0.26-0.78,0.78v3.1c0,0.52,0.26,0.78,0.78,0.78h4.09
			c7.86,0,9-0.98,9.83-0.98c0.52,0,0.88,0.41,0.88,0.93c0,4.4-0.62,8.33-2.95,8.33h-21C206.02,85.8,205.55,85.33,205.55,84.35z"/>
		<path class="st6" d="M259.98,60.71c0,1.76-0.26,2.95-1.19,4.03c-2.07,2.64-4.76,4.91-7.14,7.09l8.74,11.85
			c0,0,0.36,0.41,0.36,0.78c0,0.62-1.91,1.35-4.86,1.35c-3.1,0-5.33-0.31-5.64-0.78l-4.76-6.41c-1.55,2.17-2.84,4.5-2.84,5.84
			c0,0.93-2.33,1.35-5.43,1.35c-2.69,0-4.81-0.21-4.81-1.35c0-1.71,0.26-2.9,1.14-3.98c2.38-2.95,5.02-5.33,7.55-7.81l-8.17-11.17
			c0,0-0.41-0.52-0.41-0.93c0-0.57,1.97-1.14,4.91-1.14c3.1,0,5.38,0.31,5.69,0.78l4.24,5.79c1.29-1.76,2.38-3.62,2.38-5.28
			c0-0.93,2.33-1.29,5.43-1.29C257.86,59.42,259.98,59.57,259.98,60.71z"/>
		<path class="st6" d="M261.94,73.44c0-10.29,7.5-14.54,15.05-14.54c5.84,0,8.07,2.22,8.07,3.21c0,1.19-2.28,4.5-3.31,4.5
			c-0.83,0-2.12-1.19-4.81-1.19c-1.91,0-4.97,1.4-4.97,7.03c0,5.28,3.05,7.09,6.78,7.09c4.34,0,6.1-2.07,6.98-2.07
			c0.31,0,0.62,0.21,0.62,0.72c0,1.29-0.47,4.03-1.4,5.43c-0.88,1.35-4.19,2.69-7.97,2.69C268.66,86.32,261.94,81.87,261.94,73.44z"
			/>
		<path class="st6" d="M288.49,73.18c0-10.03,7.14-14.28,14.33-14.28c7.55,0,11.33,3.26,11.33,7.66c0,6.88-8.48,9.72-14.59,10.09
			c1.45,2.28,4.24,2.9,6.41,2.9c3.83,0,6.1-2.59,6.98-2.59c0.31,0,0.62,0.21,0.62,0.72c0,0.83-0.36,3.93-0.98,5.48
			c-0.41,1.09-3.47,3.16-9,3.16C294.44,86.32,288.49,81.56,288.49,73.18z M298.53,71.99c3.26-0.83,6.05-2.59,6.05-6
			c0-1.09-0.72-1.66-1.66-1.66C301.43,64.33,298.79,65.94,298.53,71.99z"/>
		<path class="st6" d="M318.23,97.49V67.64c0-1.97-1.45-2.9-1.45-3.88c0-1.55,5.07-4.86,7.29-4.86c1.29,0,2.02,0.47,3.41,2.74
			c1.14-1.14,3.52-2.74,7.19-2.74c4.97,0,10.24,3.98,10.24,12c0,11.53-6.05,15.41-12.36,15.41c-3.16,0-4.5-0.93-4.5-0.93v12.1
			c0,0.83-1.24,1.6-4.91,1.6S318.23,98.32,318.23,97.49z M335.15,72.3c0-5.79-2.22-7.14-4.24-7.14c-1.45,0-2.84,1.19-2.84,2.38v10.5
			c0,1.86,1.03,2.74,2.43,2.74C332.72,80.78,335.15,79.07,335.15,72.3z"/>
		<path class="st6" d="M349.33,59.42v-4.97c0-1.09,7.35-3.1,8.95-3.1c0.57,0,0.88,0.31,0.88,0.98v7.09h3.57
			c0.47,0,0.83,0.36,0.83,0.83c0,1.29-1.76,5.22-3.1,5.22h-1.29V76.9c0,2.48,1.29,3.52,3.26,3.52h0.47c0.57,0,0.88,0.57,0.88,1.03
			c0,1.4-3.36,4.86-6.41,4.86c-5.07,0-8.02-3.26-8.02-7.76V65.47h-1.03c-0.57,0-1.09-1.09-1.09-3c0-1.97,0.52-3.05,1.09-3.05H349.33
			z"/>
		<path class="st6" d="M376.94,52.69c0,2.84-1.29,4.09-5.22,4.09c-3.93,0-5.22-1.24-5.22-4.09c0-2.79,1.29-4.14,5.22-4.14
			C375.65,48.56,376.94,49.9,376.94,52.69z M376.63,78.19c0,1.6,0.88,2.22,2.02,2.22h0.26c0.78,0,1.09,0.47,1.09,1.03
			c0,1.4-3.36,4.86-6.41,4.86c-4.45,0-6.78-2.33-6.78-6.16V61.02c0-0.83,1.24-1.6,4.91-1.6c3.67,0,4.91,0.78,4.91,1.6V78.19z"/>
		<path class="st6" d="M381.62,72.5c0-9.21,6.83-13.6,14.85-13.6c7.97,0,14.79,4.4,14.79,13.6c0,9.26-6.83,13.81-14.79,13.81
			C388.45,86.32,381.62,81.76,381.62,72.5z M401.17,72.5c0-6.36-2.48-7.5-4.71-7.5s-4.76,1.14-4.76,7.5c0,6.36,2.53,7.55,4.76,7.55
			S401.17,78.87,401.17,72.5z"/>
		<path class="st6" d="M431.22,80.16v-12c0-1.45-0.88-2.33-2.28-2.33c-1.66,0-3.88,1.66-3.88,3.26v15.1c0,0.83-1.24,1.6-4.91,1.6
			s-4.91-0.78-4.91-1.6V67.64c0-1.97-1.45-2.9-1.45-3.88c0-1.55,5.07-4.86,7.29-4.86c1.09,0,1.76,0.31,2.79,1.81
			c0.21,0.26,0.41,0.57,0.62,0.93c1.81-1.19,4.76-2.74,8.59-2.74c4.35,0,7.97,2.33,7.97,6.98v12.31c0,1.6,0.88,2.22,2.02,2.22h0.31
			c0.78,0,1.03,0.47,1.03,1.03c0,1.4-3.36,4.86-6.41,4.86C433.55,86.32,431.22,83.99,431.22,80.16z"/>
		<path class="st6" d="M463.51,84.04c-1.86,1.19-3.93,2.28-7.76,2.28c-5.43,0-9.26-3.05-9.26-7.55c0-6.47,4.71-8.28,12.16-10.24
			c1.96-0.52,2.69-0.93,2.69-1.6c0-0.72-0.72-1.5-3.1-1.5c-3.98,0-7.91,2.38-8.74,2.38c-0.57,0-0.88-0.36-0.88-0.88
			c0-0.83,0.36-3.36,1.5-5.33c0.62-1.09,4.03-2.69,9.47-2.69c7.91,0,11.64,3.47,11.64,10.4v8.9c0,1.6,0.88,2.22,2.02,2.22h0.1
			c0.83,0,1.24,0.47,1.24,1.03c0,1.4-3.36,4.86-6.41,4.86C466.36,86.32,463.51,84.04,463.51,84.04z M458.75,80.47
			c1.6,0,2.64-0.93,2.64-1.55V73.8c0-0.26-0.1-0.47-0.41-0.47c-1.29,0-2.74,0.41-3.83,1.19c-1.09,0.72-1.86,1.76-1.86,3
			C455.29,79.38,456.63,80.47,458.75,80.47z"/>
		<path class="st6" d="M477.25,80.16v-30c0-0.83,1.24-1.6,4.91-1.6s4.91,0.78,4.91,1.6v28.04c0,1.6,0.88,2.22,2.02,2.22h0.21
			c0.78,0,1.14,0.47,1.14,1.03c0,1.4-3.36,4.86-6.41,4.86C479.57,86.32,477.25,83.99,477.25,80.16z"/>
		<path class="st6" d="M202.97,90.97v-2.59h28.92v2.59H202.97z"/>
		<path class="st6" d="M204.52,121.3c0-11.9,8.9-18.21,19.14-18.21c7.76,0,10.91,3.41,10.91,4.45c0,1.03-2.33,5.12-3.21,5.12
			c-1.14,0-2.84-1.71-7.71-1.71c-5.33,0-8.79,3.05-8.79,10.5c0,6.15,3.83,9.67,9.88,9.67c6.21,0,9.05-3.26,10.14-3.26
			c0.57,0,0.93,0.31,0.93,0.93c0,0.98-0.31,3.93-1.09,5.74c-0.52,1.34-4.86,4.24-11.38,4.24
			C213.36,138.79,204.52,133.51,204.52,121.3z"/>
		<path class="st6" d="M238.68,124.98c0-9.21,6.83-13.6,14.84-13.6c7.97,0,14.79,4.4,14.79,13.6c0,9.26-6.83,13.81-14.79,13.81
			C245.51,138.79,238.68,134.23,238.68,124.98z M258.23,124.98c0-6.36-2.48-7.5-4.71-7.5s-4.76,1.14-4.76,7.5
			c0,6.36,2.53,7.55,4.76,7.55S258.23,131.34,258.23,124.98z"/>
		<path class="st6" d="M288.28,132.63v-12c0-1.45-0.88-2.33-2.28-2.33c-1.66,0-3.88,1.66-3.88,3.26v15.1c0,0.83-1.24,1.6-4.91,1.6
			s-4.91-0.78-4.91-1.6v-16.55c0-1.96-1.45-2.9-1.45-3.88c0-1.55,5.07-4.86,7.29-4.86c1.09,0,1.76,0.31,2.79,1.81
			c0.21,0.26,0.41,0.57,0.62,0.93c1.81-1.19,4.76-2.74,8.59-2.74c4.34,0,7.97,2.33,7.97,6.98v12.31c0,1.6,0.88,2.22,2.02,2.22h0.31
			c0.78,0,1.03,0.46,1.03,1.03c0,1.4-3.36,4.86-6.41,4.86C290.6,138.79,288.28,136.46,288.28,132.63z"/>
		<path class="st6" d="M303.64,134.18c0-1.14,3.16-4.76,4.24-4.76c0.78,0,4.29,3.1,7.76,3.1c1.19,0,2.02-0.67,2.02-1.71
			c0-3.57-13.45-2.59-13.45-10.71c0-5.43,5.48-8.74,12.16-8.74c6,0,9.47,2.07,9.47,3.41c0,1.19-2.9,4.81-4.09,4.81
			c-0.83,0-3.78-2.38-6.21-2.38c-1.09,0-1.76,0.72-1.76,1.66c0,3.78,13.45,2.33,13.45,11.17c0,5.17-4.97,8.74-12,8.74
			C308.91,138.79,303.64,135.27,303.64,134.18z"/>
		<path class="st6" d="M341.16,105.16c0,2.84-1.29,4.09-5.22,4.09c-3.93,0-5.22-1.24-5.22-4.09c0-2.79,1.29-4.14,5.22-4.14
			C339.87,101.03,341.16,102.37,341.16,105.16z M340.85,130.66c0,1.6,0.88,2.22,2.02,2.22h0.26c0.78,0,1.09,0.46,1.09,1.03
			c0,1.4-3.36,4.86-6.41,4.86c-4.45,0-6.78-2.33-6.78-6.16v-19.14c0-0.83,1.24-1.6,4.91-1.6c3.67,0,4.91,0.78,4.91,1.6V130.66z"/>
		<path class="st6" d="M362.72,137.65c0,0-2.48,1.14-5.22,1.14c-6.16,0-11.48-4.19-11.48-12.57c0-10.76,8.54-14.84,15.98-14.84
			c6.72,0,10.55,2.84,10.55,4.29v24.62c0,5.79-4.24,10.71-12.41,10.71c-4.45,0-8.74-1.76-9.26-2.9c-0.72-1.55-0.98-4.24-0.98-5.59
			c0-0.52,0.36-0.88,0.98-0.88c0.88,0,4.19,2.12,7.76,2.12c2.33,0,4.09-0.98,4.09-3.88V137.65z M362.72,118.82
			c0-0.88-0.72-1.6-1.81-1.6c-2.38,0-5.07,2.33-5.07,8.64c0,4.71,2.02,6.93,4.14,6.93c1.29,0,2.74-0.98,2.74-2.28V118.82z"/>
		<path class="st6" d="M393.98,132.63v-12c0-1.45-0.88-2.33-2.28-2.33c-1.66,0-3.88,1.66-3.88,3.26v15.1c0,0.83-1.24,1.6-4.91,1.6
			s-4.91-0.78-4.91-1.6v-16.55c0-1.96-1.45-2.9-1.45-3.88c0-1.55,5.07-4.86,7.29-4.86c1.09,0,1.76,0.31,2.79,1.81
			c0.21,0.26,0.41,0.57,0.62,0.93c1.81-1.19,4.76-2.74,8.59-2.74c4.35,0,7.97,2.33,7.97,6.98v12.31c0,1.6,0.88,2.22,2.02,2.22h0.31
			c0.78,0,1.03,0.46,1.03,1.03c0,1.4-3.36,4.86-6.41,4.86C396.31,138.79,393.98,136.46,393.98,132.63z"/>
		<path class="st6" d="M441.25,132.63v-12.41c0-1.24-0.93-1.91-2.07-1.91c-1.86,0-3.62,1.66-3.62,2.53v15.83
			c0,0.83-1.24,1.6-4.91,1.6s-4.91-0.78-4.91-1.6v-16.35c0-1.34-1.03-2.02-2.22-2.02c-1.55,0-3.47,1.19-3.47,2.23v16.14
			c0,0.83-1.24,1.6-4.91,1.6s-4.91-0.78-4.91-1.6v-16.55c0-1.96-1.45-2.9-1.45-3.88c0-1.55,5.07-4.86,7.29-4.86
			c1.29,0,2.02,0.46,3.41,2.74c0,0,3.41-2.74,7.19-2.74c2.79,0,5.33,0.93,6.67,2.74c2.28-1.81,6.16-2.74,9.21-2.74
			c4.03,0,8.53,2.33,8.53,6.52v12.78c0,1.6,0.88,2.22,2.02,2.22h0.21c0.83,0,1.14,0.46,1.14,1.03c0,1.4-3.36,4.86-6.41,4.86
			C443.58,138.79,441.25,136.46,441.25,132.63z"/>
		<path class="st6" d="M455.79,125.65c0-10.03,7.14-14.28,14.33-14.28c7.55,0,11.33,3.26,11.33,7.65c0,6.88-8.48,9.72-14.59,10.09
			c1.45,2.28,4.24,2.9,6.41,2.9c3.83,0,6.1-2.59,6.98-2.59c0.31,0,0.62,0.21,0.62,0.72c0,0.83-0.36,3.93-0.98,5.48
			c-0.41,1.09-3.46,3.16-9,3.16C461.74,138.79,455.79,134.03,455.79,125.65z M465.82,124.46c3.26-0.83,6.05-2.59,6.05-6
			c0-1.09-0.72-1.66-1.66-1.66C468.72,116.8,466.08,118.41,465.82,124.46z"/>
		<path class="st6" d="M501.51,132.63v-12c0-1.45-0.88-2.33-2.28-2.33c-1.66,0-3.88,1.66-3.88,3.26v15.1c0,0.83-1.24,1.6-4.91,1.6
			s-4.91-0.78-4.91-1.6v-16.55c0-1.96-1.45-2.9-1.45-3.88c0-1.55,5.07-4.86,7.29-4.86c1.09,0,1.76,0.31,2.79,1.81
			c0.21,0.26,0.41,0.57,0.62,0.93c1.81-1.19,4.76-2.74,8.59-2.74c4.35,0,7.97,2.33,7.97,6.98v12.31c0,1.6,0.88,2.22,2.02,2.22h0.31
			c0.78,0,1.03,0.46,1.03,1.03c0,1.4-3.36,4.86-6.41,4.86C503.84,138.79,501.51,136.46,501.51,132.63z"/>
		<path class="st6" d="M517.86,111.89v-4.97c0-1.09,7.35-3.1,8.95-3.1c0.57,0,0.88,0.31,0.88,0.98v7.09h3.57
			c0.47,0,0.83,0.36,0.83,0.83c0,1.29-1.76,5.22-3.1,5.22h-1.29v11.43c0,2.48,1.29,3.52,3.26,3.52h0.47c0.57,0,0.88,0.57,0.88,1.03
			c0,1.4-3.36,4.86-6.41,4.86c-5.07,0-8.02-3.26-8.02-7.76v-13.09h-1.03c-0.57,0-1.09-1.09-1.09-3c0-1.97,0.52-3.05,1.09-3.05
			H517.86z"/>
		<path class="st6" d="M534.41,134.18c0-1.14,3.16-4.76,4.24-4.76c0.78,0,4.29,3.1,7.76,3.1c1.19,0,2.02-0.67,2.02-1.71
			c0-3.57-13.45-2.59-13.45-10.71c0-5.43,5.48-8.74,12.16-8.74c6,0,9.47,2.07,9.47,3.41c0,1.19-2.9,4.81-4.09,4.81
			c-0.83,0-3.78-2.38-6.21-2.38c-1.09,0-1.76,0.72-1.76,1.66c0,3.78,13.45,2.33,13.45,11.17c0,5.17-4.97,8.74-12,8.74
			C539.69,138.79,534.41,135.27,534.41,134.18z"/>
		<path class="st6" d="M202.97,143.44v-2.59h34.16v2.59H202.97z"/>
	</g>
</g>
</svg>
